<mxfile host="app.diagrams.net" agent="Mozilla/5.0 (Windows NT 10.0; Win64; x64) AppleWebKit/537.36 (KHTML, like Gecko) Chrome/128.0.0.0 Safari/537.36" version="24.7.16">
  <diagram id="7q6WzZqFf9v9yzIv_zda" name="Use case">
    <mxGraphModel dx="1195" dy="622" grid="1" gridSize="10" guides="1" tooltips="1" connect="1" arrows="1" fold="1" page="1" pageScale="1" pageWidth="850" pageHeight="1100" math="0" shadow="0">
      <root>
        <mxCell id="0" />
        <mxCell id="1" parent="0" />
        <mxCell id="SSoZlEEdxV4zL4xD8buy-2" value="Security Analyst" style="shape=umlActor;verticalLabelPosition=bottom;verticalAlign=top;html=1;outlineConnect=0;fillColor=#FFFFFF;" parent="1" vertex="1">
          <mxGeometry x="80" y="180" width="30" height="60" as="geometry" />
        </mxCell>
        <mxCell id="SSoZlEEdxV4zL4xD8buy-3" value="" style="endArrow=none;html=1;" parent="1" edge="1">
          <mxGeometry width="50" height="50" relative="1" as="geometry">
            <mxPoint x="110" y="212" as="sourcePoint" />
            <mxPoint x="200" y="212" as="targetPoint" />
          </mxGeometry>
        </mxCell>
        <mxCell id="okeo2Aa4OqrN3XAgRoa3-2" style="edgeStyle=orthogonalEdgeStyle;rounded=1;orthogonalLoop=1;jettySize=auto;html=1;entryX=0;entryY=0.5;entryDx=0;entryDy=0;dashed=1;strokeWidth=1;endFill=0;endArrow=open;curved=1;exitX=0.5;exitY=0;exitDx=0;exitDy=0;" parent="1" source="SSoZlEEdxV4zL4xD8buy-4" target="okeo2Aa4OqrN3XAgRoa3-1" edge="1">
          <mxGeometry relative="1" as="geometry" />
        </mxCell>
        <mxCell id="SSoZlEEdxV4zL4xD8buy-4" value="Reviewing Logs" style="ellipse;whiteSpace=wrap;html=1;fillColor=#FFFFFF;" parent="1" vertex="1">
          <mxGeometry x="200" y="170" width="120" height="80" as="geometry" />
        </mxCell>
        <mxCell id="SSoZlEEdxV4zL4xD8buy-5" value="SIEM" style="ellipse;whiteSpace=wrap;html=1;fillColor=#FFFFFF;" parent="1" vertex="1">
          <mxGeometry x="390" y="310" width="120" height="80" as="geometry" />
        </mxCell>
        <mxCell id="SSoZlEEdxV4zL4xD8buy-10" value="" style="endArrow=open;dashed=1;html=1;entryX=0;entryY=0.5;entryDx=0;entryDy=0;edgeStyle=orthogonalEdgeStyle;curved=1;endFill=0;strokeWidth=1;exitX=0.5;exitY=1;exitDx=0;exitDy=0;" parent="1" source="SSoZlEEdxV4zL4xD8buy-4" target="SSoZlEEdxV4zL4xD8buy-5" edge="1">
          <mxGeometry width="50" height="50" relative="1" as="geometry">
            <mxPoint x="180" y="340" as="sourcePoint" />
            <mxPoint x="170" y="320" as="targetPoint" />
          </mxGeometry>
        </mxCell>
        <mxCell id="okeo2Aa4OqrN3XAgRoa3-1" value="Traffic Scrubbing" style="ellipse;whiteSpace=wrap;html=1;" parent="1" vertex="1">
          <mxGeometry x="400" y="40" width="120" height="80" as="geometry" />
        </mxCell>
        <mxCell id="okeo2Aa4OqrN3XAgRoa3-3" style="edgeStyle=orthogonalEdgeStyle;rounded=0;orthogonalLoop=1;jettySize=auto;html=1;entryX=1;entryY=0.5;entryDx=0;entryDy=0;endArrow=none;endFill=0;" parent="1" source="okeo2Aa4OqrN3XAgRoa3-4" edge="1">
          <mxGeometry relative="1" as="geometry">
            <mxPoint x="660" y="210" as="targetPoint" />
          </mxGeometry>
        </mxCell>
        <mxCell id="okeo2Aa4OqrN3XAgRoa3-4" value="Disgruntled Former Patient" style="shape=umlActor;verticalLabelPosition=bottom;verticalAlign=top;html=1;outlineConnect=0;fillColor=#000000;" parent="1" vertex="1">
          <mxGeometry x="760" y="180" width="30" height="60" as="geometry" />
        </mxCell>
        <mxCell id="okeo2Aa4OqrN3XAgRoa3-5" style="edgeStyle=orthogonalEdgeStyle;curved=1;rounded=0;orthogonalLoop=1;jettySize=auto;html=1;entryX=1;entryY=0.5;entryDx=0;entryDy=0;dashed=1;endArrow=open;endFill=0;strokeWidth=1;" parent="1" source="okeo2Aa4OqrN3XAgRoa3-7" edge="1">
          <mxGeometry relative="1" as="geometry">
            <mxPoint x="320" y="210" as="targetPoint" />
          </mxGeometry>
        </mxCell>
        <mxCell id="okeo2Aa4OqrN3XAgRoa3-6" value="&amp;lt;&amp;lt;Threatens&amp;gt;&amp;gt;" style="edgeLabel;html=1;align=center;verticalAlign=middle;resizable=0;points=[];" parent="okeo2Aa4OqrN3XAgRoa3-5" vertex="1" connectable="0">
          <mxGeometry x="0.1143" y="1" relative="1" as="geometry">
            <mxPoint y="9" as="offset" />
          </mxGeometry>
        </mxCell>
        <mxCell id="okeo2Aa4OqrN3XAgRoa3-7" value="DDoS" style="ellipse;whiteSpace=wrap;html=1;fillColor=#000000;fontColor=#FFFFFF;" parent="1" vertex="1">
          <mxGeometry x="540" y="170" width="120" height="80" as="geometry" />
        </mxCell>
        <mxCell id="okeo2Aa4OqrN3XAgRoa3-8" style="edgeStyle=orthogonalEdgeStyle;curved=1;rounded=0;orthogonalLoop=1;jettySize=auto;html=1;dashed=1;endArrow=open;endFill=0;strokeWidth=1;exitX=1;exitY=0.5;exitDx=0;exitDy=0;entryX=0.5;entryY=1;entryDx=0;entryDy=0;" parent="1" source="SSoZlEEdxV4zL4xD8buy-5" target="okeo2Aa4OqrN3XAgRoa3-7" edge="1">
          <mxGeometry relative="1" as="geometry">
            <mxPoint x="430" y="280" as="targetPoint" />
            <mxPoint x="440" y="350" as="sourcePoint" />
          </mxGeometry>
        </mxCell>
        <mxCell id="okeo2Aa4OqrN3XAgRoa3-9" value="&amp;lt;&amp;lt;Prevents&amp;gt;&amp;gt;" style="edgeLabel;html=1;align=center;verticalAlign=middle;resizable=0;points=[];" parent="okeo2Aa4OqrN3XAgRoa3-8" vertex="1" connectable="0">
          <mxGeometry x="-0.2286" y="23" relative="1" as="geometry">
            <mxPoint x="21" y="3" as="offset" />
          </mxGeometry>
        </mxCell>
        <mxCell id="bYwRGnPVRiDs4y-89QFx-2" style="edgeStyle=orthogonalEdgeStyle;curved=1;rounded=0;orthogonalLoop=1;jettySize=auto;html=1;dashed=1;endArrow=open;endFill=0;strokeWidth=1;entryX=0.5;entryY=0;entryDx=0;entryDy=0;exitX=1;exitY=0.5;exitDx=0;exitDy=0;" edge="1" parent="1" source="okeo2Aa4OqrN3XAgRoa3-1" target="okeo2Aa4OqrN3XAgRoa3-7">
          <mxGeometry relative="1" as="geometry">
            <mxPoint x="519.5" y="79.5" as="targetPoint" />
            <mxPoint x="670" y="70" as="sourcePoint" />
            <Array as="points">
              <mxPoint x="600" y="80" />
            </Array>
          </mxGeometry>
        </mxCell>
        <mxCell id="bYwRGnPVRiDs4y-89QFx-3" value="&amp;lt;&amp;lt;Prevents&amp;gt;&amp;gt;" style="edgeLabel;html=1;align=center;verticalAlign=middle;resizable=0;points=[];" vertex="1" connectable="0" parent="bYwRGnPVRiDs4y-89QFx-2">
          <mxGeometry x="-0.2286" y="23" relative="1" as="geometry">
            <mxPoint x="14" y="53" as="offset" />
          </mxGeometry>
        </mxCell>
        <mxCell id="bYwRGnPVRiDs4y-89QFx-4" value="&amp;lt;&amp;lt;Includes&amp;gt;&amp;gt;" style="edgeLabel;html=1;align=center;verticalAlign=middle;resizable=0;points=[];" vertex="1" connectable="0" parent="1">
          <mxGeometry x="290.0033333333335" y="100" as="geometry">
            <mxPoint x="-2" as="offset" />
          </mxGeometry>
        </mxCell>
        <mxCell id="bYwRGnPVRiDs4y-89QFx-5" value="&lt;span style=&quot;color: rgb(0, 0, 0); font-family: Helvetica; font-size: 11px; font-style: normal; font-variant-ligatures: normal; font-variant-caps: normal; font-weight: 400; letter-spacing: normal; orphans: 2; text-align: center; text-indent: 0px; text-transform: none; widows: 2; word-spacing: 0px; -webkit-text-stroke-width: 0px; white-space: nowrap; background-color: rgb(255, 255, 255); text-decoration-thickness: initial; text-decoration-style: initial; text-decoration-color: initial; display: inline !important; float: none;&quot;&gt;&amp;lt;&amp;lt;Includes&amp;gt;&amp;gt;&lt;/span&gt;" style="text;whiteSpace=wrap;html=1;" vertex="1" parent="1">
          <mxGeometry x="250" y="310" width="100" height="40" as="geometry" />
        </mxCell>
      </root>
    </mxGraphModel>
  </diagram>
</mxfile>
